<svg xmlns="http://www.w3.org/2000/svg" viewBox="0 0 875.13 181.59"><defs><style>.cls-1{fill:#fcfcfc;}</style></defs><g id="Calque_2" data-name="Calque 2"><g id="Calque_1-2" data-name="Calque 1"><path class="cls-1" d="M147.53,72.43c-10.34-18.72-21.26-36.74-31.68-55.37a9.3,9.3,0,0,0-5.63-4.46L66.77.31a9.46,9.46,0,0,0-7,.88C55.57,3.5,46.41,8.81,26.35,20.91-10.59,43.21,2.11,71.2,2.11,71.2l51,88.54a4.35,4.35,0,0,0,6.84.9l.36-.37a6.53,6.53,0,0,0,1.57-6.68c-7-21.15,11.55-33.91,11.55-33.91L145.66,79A4.86,4.86,0,0,0,147.53,72.43ZM76.66,14.16l16.27,4.76a1.3,1.3,0,0,1,.38,2.32l-8.38,5.89a1.48,1.48,0,0,1-2.11-.44l-7-11.5A.7.7,0,0,1,76.66,14.16Zm56.85,59.63L68.6,110.86s-9.43,5.19-14.3,14.34a24.26,24.26,0,0,0-2.51,7.21,1.06,1.06,0,0,1-1.95.35c-2.68-4.31-7.58-13.68-6.46-23,.73-6.14,4-12.28,12.26-17,19.5-11.19,40.53-23,49.13-27.82a4.52,4.52,0,0,0,1.68-6.22l-.9-1.52a5.66,5.66,0,0,0-7.62-2.06L51.88,81s-11,6.11-15.21,16.89a23.48,23.48,0,0,0-1.5,5.85,1,1,0,0,1-1.66.53C31,101.42,26,95,24.89,87.56c-1-7,1.5-15.06,12.74-22L60.87,51A4.44,4.44,0,0,0,62,44.5l-.09-.09a7.18,7.18,0,0,0-9.24-1.67l-22,13s-7.11,5.78-10.34,13.89a21.49,21.49,0,0,0-1.54,6.4.67.67,0,0,1-1.22.35C13.35,70.64.62,49.74,23.11,35.56l2.33-1.47C42.83,23.14,53.91,16.33,59,13.25a3.75,3.75,0,0,1,5.14,1.22L77.77,36.34A5.3,5.3,0,0,0,85,38.08L105.15,26a3,3,0,0,1,4.17,1l25.54,41.53A3.78,3.78,0,0,1,133.51,73.79Z"/><path class="cls-1" d="M527.41,30.17q-15.94-13.56-40.5-13.56-27.68,0-46.46,16.62T421.66,74.94a33.37,33.37,0,0,0,2.12,12.32c-.06,0-.11,0-.16,0A4.69,4.69,0,0,0,420.43,91q-9.23,33.38-21,32.83-7.59-.41-6.24-14.11c.27-2.62.64-5.9,1.09-9.83s.83-7.33,1.15-10.18a62.8,62.8,0,0,0,.47-6.58q0-10.44-5.29-16.21A17.58,17.58,0,0,0,377,61.11q-14.11,0-22.52,15.73V75.76q-.28-6.24-3.8-9.43a14.45,14.45,0,0,0-9.36-3.46q-6.93-.27-6.52,4.75.56,6,.55,14.44c0,3.21,0,6.55-.1,10a108.65,108.65,0,0,1-9.68,22.47q-5.55,9.29-11.39,9.29a4.93,4.93,0,0,1-4.61-2.64,12.39,12.39,0,0,1-1.43-6.45c0-2.53.11-5.2.2-8,.19-2.17.5-5.5.95-10s.77-8.28.95-11.4.23-6,.14-8.61q-.4-12.49-11.53-13.84-6.66-.81-6.92,4.34.27,6.24-.41,19.27v-.14a88.2,88.2,0,0,1-2.1,15.6A37,37,0,0,1,284,114.69c-2.48,3.62-5.45,5.43-8.88,5.43a6.41,6.41,0,0,1-6-3.8q-2-3.79-1.43-10.72Q270,82.82,269.16,76c-.46-4.34-1.65-7.58-3.6-9.7S260.74,63,257,62.73a8.47,8.47,0,0,0-5.09,1,3.78,3.78,0,0,0-1.56,3.6q.94,11.79.81,15.73c-.07,1.9-.25,4.67-.54,8.27-.89,2.9-2,6.18-3.53,9.91q-2.31,5.83-6,13.3a50.91,50.91,0,0,1-8.62,12.55q-4.89,5.08-9.5,5.08-9,0-9.9-23.47-.41-10.57.81-30.39c.09-2.17.3-5.47.61-9.9s.57-7.82.75-10.17q7.32.27,9.23.13,6.78-.27,9.83-2t3.19-6.24c.09-1.27-.23-2-.95-2.24a11.46,11.46,0,0,0-3.93-.07q-8.55.67-16.83.68V47.4A154.22,154.22,0,0,0,215.57,30q-.82-10-11.67-11.26a7,7,0,0,0-4.68.68,3.8,3.8,0,0,0-1.7,3.79q.14,1.5.14,6.24-.54,12.21-1.09,18.86-2.58-.14-7.59-.13c-.36,0-1.2,0-2.51-.07a23.42,23.42,0,0,0-2.72,0l-2.37.2a6,6,0,0,0-2.44.61,21.45,21.45,0,0,0-1.83,1.22,4.83,4.83,0,0,0-1.56,2,8.52,8.52,0,0,0-.68,2.85c-.18,1.36.07,2.26.74,2.71a4.73,4.73,0,0,0,3.19.41q8.14-.54,17.09-.41-1.75,25.65-2,31.48-2.45,53.44,25.23,53.45a21.56,21.56,0,0,0,7.6-1.36,33.06,33.06,0,0,0,6.58-3.25,29,29,0,0,0,5.84-5.23q2.91-3.31,4.95-6.17a52.65,52.65,0,0,0,4.2-7.26c.66-1.33,1.24-2.52,1.78-3.62a26.33,26.33,0,0,0,3.24,9.25q4.35,7.2,14.38,7.19,16.29,0,24.42-19.8,3,20.34,19.81,20.35,13.38,0,23-17.9c.08,1.77.21,3.5.45,5.14.36,3.62,1.53,6.25,3.52,7.87s5,2.62,9.09,3c2.18.18,3.78-.16,4.82-1s1.47-2.37,1.29-4.54q-.4-6.93-.27-17.51c0-1.89,0-3.3.13-4.2Q354.49,91,358.5,82.2t9.83-9q7.88-.41,7.19,12.62-1.22,21.71-.54,27.4,1.5,10.17,7.06,15.33t14.38,5.16a23.37,23.37,0,0,0,6-.75,24.76,24.76,0,0,0,5.08-1.9,17.84,17.84,0,0,0,4.41-3.32,53.51,53.51,0,0,0,3.67-4,30.76,30.76,0,0,0,3.18-5.08c1.14-2.17,2-4,2.72-5.5s1.49-3.59,2.44-6.31,1.67-4.86,2.17-6.44,1.09-3.52,1.89-6.16a16.32,16.32,0,0,0,7.14,4.8,11.71,11.71,0,0,0,10.31-1.15q3.39-2.45,4.14-4.88c.49-1.63.24-2.72-.75-3.26q-11-7.32-11-21.44,0-17.36,13.16-29.71t32.56-12.34q18.72,0,29.24,10.38T523.27,64.9q0,18.59-11.4,31.68t-27.54,11.33c.09-1,.37-4.34.82-10s.72-9.34.81-10.92.27-4.66.54-9.23.43-8,.48-10.31,0-5.11,0-8.41-.2-6.31-.48-9q-.81-11-14.1-12.07a6.24,6.24,0,0,0-5,1.49q-2,1.76-1.83,5.7,1.36,21.3-.34,56.09t-.88,43.89q.54,7.2,3.12,9.7c1.72,1.68,4.75,2.78,9.09,3.33a6.3,6.3,0,0,0,4.55-1.09,4.75,4.75,0,0,0,1.69-4.34,322.59,322.59,0,0,1,1-37.17A47.2,47.2,0,0,0,512,113.34,48.6,48.6,0,0,0,534.6,95.23a49.6,49.6,0,0,0,8.75-28.83Q543.35,43.74,527.41,30.17Z"/><path class="cls-1" d="M874.6,84.62a4.92,4.92,0,0,0-4.1-.63c-1.58.46-4,5-4.52,7q-10.58,35.55-27.81,35.55a7.3,7.3,0,0,1-5.56-2.31q-2.18-2.31-2.17-6.78,0-6.39,4.48-18.59.68-1.63,2.64-6.85t2.85-7.8q.89-2.58,1.83-6.24a25.26,25.26,0,0,0,1-6.24c0-4.62-2-7.28-6-8a117.51,117.51,0,0,0-15.53-1.29c-6.83-.22-10.42-.34-10.79-.34A97.64,97.64,0,0,0,812,49.71q0-16.41-11.8-16.42a12.81,12.81,0,0,0-9.64,4.34q-4.06,4.35-3.66,12.89.68,13.17,14.52,18.32a186.44,186.44,0,0,1-5.14,22.46q-4.35,14.13-13,22.38A28.88,28.88,0,0,1,762.74,122q-8.41,0-13.7-5a25,25,0,0,1-7.19-12.69c.9.09,2.17.14,3.79.14q14.93,0,25.31-6.45t10.92-16.48q.4-7.87-6.65-14t-19.13-6.17q-16.55,0-25.77,10.78a38.14,38.14,0,0,0-9.11,22.93c-1.88,5.4-3.73,9.33-5.55,11.73q-3.39,4.49-11,4.48c-1.36,0-3.12-.09-5.29-.27a49,49,0,0,0,4.88-20.89q0-11.81-5.9-19.61t-17.16-7.8a23.62,23.62,0,0,0-16,5.9A41.51,41.51,0,0,0,654.34,84.3c-.18-3.34-.46-6.82-.82-10.44s-1.72-6.47-3.8-8.28-5.2-2.71-9.36-2.71A6,6,0,0,0,636,64.29q-1.43,1.42-1,5.36c.6,6.39.94,13.67,1.06,21.74a102,102,0,0,1-9.89,23q-5.7,9.3-11.66,9.3-2.85,0-4.14-3.33a23.09,23.09,0,0,1-1.09-8.95q.21-5.62.88-11.13t1.56-11.8c.59-4.2.93-7.17,1-8.88q.81-10.86-12.48-13-6.37-.94-6.51,3.94a121.65,121.65,0,0,1-1.77,17.43,82.57,82.57,0,0,1-4.47,18,35.43,35.43,0,0,1-6.65,11.39c-2.53,2.71-5.07,4.07-7.6,4.07-3.43,0-6-1.72-7.8-5.15s-2.64-7.83-2.64-13.16a54.63,54.63,0,0,1,2.64-16.69,34.62,34.62,0,0,1,7.94-13.77q5.28-5.49,11.94-4.41a3.71,3.71,0,0,0,3-.61,2.45,2.45,0,0,0,1-2.1,2,2,0,0,0-1-1.77,17.91,17.91,0,0,0-9-2.3q-15.33,0-25.64,12.82t-10.31,30.18q0,11.81,5.9,19.61t17.16,7.8a23.87,23.87,0,0,0,15.67-5.56A40.8,40.8,0,0,0,593,111.44q2.18,21.3,19.4,21.3,11,0,18.45-10.31a64.91,64.91,0,0,0,4.93-8.14c-.12,3.77-.26,7.63-.45,11.66q-1.62,34.61-.54,44.5.68,6,3.73,8.41t8.89,2.72a6.12,6.12,0,0,0,4.48-1.29,5.24,5.24,0,0,0,1.49-4.41q-1.5-19.95.2-48.37t6.17-39.27a30.48,30.48,0,0,1,6.72-11.13c2.67-2.62,5.31-3.93,7.94-3.93q5.15,0,7.8,5.15t2.64,13.16A55.15,55.15,0,0,1,682,107.37a33.94,33.94,0,0,0-5.29-.55q-8.55-.13-13.63,4.62A15.33,15.33,0,0,0,658,123.1a11.23,11.23,0,0,0,3.19,8.08q3.18,3.31,9,3.32a24,24,0,0,0,13.91-4.68,44.39,44.39,0,0,0,11.73-12.41,63,63,0,0,0,8.95,1q9.78,0,15.74-6a25.21,25.21,0,0,0,2.39-2.84c.12.33.21.67.33,1a35.83,35.83,0,0,0,6.38,10.78,28.67,28.67,0,0,0,11.46,7.87,43.78,43.78,0,0,0,16.48,2.92,44.32,44.32,0,0,0,28.7-9.91q12.13-9.78,17.7-28.21h0c0-.14.09-.26.13-.4s0-.28.08-.42a202.48,202.48,0,0,0,5.21-22.37,50.41,50.41,0,0,0,5.83.67,42,42,0,0,1,5,.68,5,5,0,0,1,2.64,1.29,4,4,0,0,1,1,1.83,5.37,5.37,0,0,1-.54,2.85q-.75,1.91-1.56,3.6c-.55,1.13-1.34,2.73-2.38,4.82s-1.92,4-2.64,5.69q-6.11,14.11-6.11,24.42a20.47,20.47,0,0,0,5.84,14.92q5.82,6,15.87,6,28.49,0,41.38-43.95C874.35,91.36,876,85.36,874.6,84.62Zm-206.15,43q-3.26,0-3.26-3.93a9.63,9.63,0,0,1,2.78-6.58,8.94,8.94,0,0,1,7.26-2.92,22.87,22.87,0,0,1,4.2.41Q673.88,127.58,668.45,127.58ZM740.9,97.46V96.11a61.1,61.1,0,0,1,1.42-13.5,26.08,26.08,0,0,1,4.95-10.72q3.53-4.41,8.41-4.41,5.43,0,7.94,3.6a13.8,13.8,0,0,1,2.1,9.15q-.54,7.06-6.92,12.15t-15.87,5.08Zm61.73-37q-6.78-2.58-6.79-10.31a15.5,15.5,0,0,1,1.22-6.79c.82-1.62,1.77-2.44,2.85-2.44q3.54,0,3.53,8.82A93,93,0,0,1,802.63,60.43Z"/></g></g></svg>